<svg version="1.2" xmlns="http://www.w3.org/2000/svg" viewBox="0 0 1584 1224" width="1584" height="1224">
	<title>Logo Team Dogs-ai</title>
	<style>
		.s0 { fill: #364350 } 
		.s1 { fill: #5a9a86 } 
		.s2 { fill: #283a48 } 
		.s3 { fill: #1f3543 } 
		.s4 { fill: #535b67 } 
		.s5 { fill: #1e232a } 
		.s6 { fill: #978f83 } 
		.s7 { fill: #625e59 } 
		.s8 { fill: #c3beb1 } 
		.s9 { fill: #2d3034 } 
		.s10 { fill: #2a3238 } 
		.s11 { fill: #39444b } 
		.s12 { fill: #bfbdb6 } 
		.s13 { fill: #3d3d3d } 
		.s14 { fill: #989a9a } 
		.s15 { fill: #3d464d } 
		.s16 { fill: #28323b } 
		.s17 { fill: #999284 } 
	</style>
	<g id="Capa 1">
		<g id="&lt;Group&gt;">
			<path id="&lt;Compound Path&gt;" fill-rule="evenodd" class="s0" d="m258.7 582.5q1.3-14 2.6-28c3.3-36.3 10.7-71.8 21.5-106.6 22.7-72.8 59.3-138 109.4-195.5 43.6-50.1 94.7-90.7 153.2-122.1 54.5-29.3 112.3-48.5 173.3-57.9 16.4-2.5 32.8-4.6 49.4-5.2 1.2 0 2.5-0.4 3.7-0.6q29.7 0 59.4 0 13.5 1.3 27 2.5c32.5 3 64.3 9.4 95.5 18.6 74.6 21.7 141.4 57.9 200.5 108.2 51.9 44.3 94 96.5 126.4 156.5 29 53.9 48.1 111 57.8 171.3 3.5 22.1 5.9 44.2 6.1 66.6 0.1 1.5 0.5 3.1 0.7 4.7q0 14.8 0 29.6c-1.6 7.9-0.9 15.9-1.5 23.8-3.5 50.6-14.1 99.7-31.4 147.3-18.8 51.8-45 99.6-78.6 143.3-47.8 62.4-106.3 112.4-175.7 149.6-56 30.1-115.6 49.5-178.5 58.7-21.7 3.2-43.6 5.3-65.7 5.1-1.6 0-3.2-0.2-4.7 0.6q-7.1 0-14.3 0c-1.3-0.2-2.5-0.6-3.7-0.6-40.2-0.2-79.7-5.8-118.8-15.2-45.2-10.9-88.1-27.6-129-49.7-50.1-27.1-94.8-61.2-134.1-102.3-52.5-55-91.9-118.1-118-189.5-13.2-35.9-22.3-72.8-27.6-110.7-2.1-14.8-3.8-29.7-4.2-44.7 0-1.4-0.4-2.8-0.7-4.2q0-26.8 0-53.6zm543.2-507.3c-293.8-0.5-530.6 237-534.5 526.8-3.9 296.2 233.6 541.7 533.9 541.8 297.5 0 531.6-238.2 534.8-528.1 3.2-303.4-242.5-541.3-534.2-540.5z"/>
		</g>
		<g id="&lt;Group&gt;">
			<g id="&lt;Group&gt;">
				<path id="&lt;Path&gt;" class="s1" d="m1046.1 412.2c-3.9-7-9.3-12.9-14.4-19-4.5-5.2-4.3-5.2 0.8-9.7 13.5-11.9 26.9-23.9 40.3-35.9 1.1-1 1.9-2.1 3.4-3.6-6.9-2.2-13.7-2-20.2-2.4-9.5-0.4-19.1-0.7-28.6 0.5-3.1 0.3-4.6-1.7-6.7-3.2-5.3-3.6-8.3-8-8.7-15.1-0.7-12.7-2.8-25.4-6.1-37.7-0.4-1.5-0.8-3-1.5-5.5-2.9 4.5-5.3 8.2-7.7 11.9-8.7 13.2-17.5 26.3-25.9 39.7-2.5 3.8-4.4 3.8-7.9 1.4-5.4-3.6-11.1-6.8-16.9-9.9-2.7-1.5-3.1-3-1.7-5.8q25.5-47.9 50.8-96c1.6-3 3.4-3.3 6.1-1.6 6.6 3.8 13.2 7.6 19.9 11.4 2.4 1.4 3.6 3.4 4.4 6 7.4 22.1 12.9 44.7 15 68 0.3 4.4 2.7 5.2 6.4 5 23-1 45.8 1.1 68.4 5.7 3.8 0.7 6.9 2.1 9.3 5.2 5.6 7.3 11.5 14.5 17.2 21.7q0 0.5 0 0.9c-8.5 6.1-17.2 12-25.6 18.2-22.8 16.6-45.5 33.2-68.2 49.8q-0.9 0-1.9 0z"/>
				<path id="&lt;Compound Path&gt;" fill-rule="evenodd" class="s1" d="m835.5 171c7.3 0.9 14.5 1.9 21.8 2.7 2.7 0.2 4.3 1.3 5.5 3.8 18.4 39.5 32.3 80.4 41.3 123.1 0.8 4-0.9 3.9-3.8 2.9-7.2-2.2-14.3-4.5-21.6-6.4-3-0.9-4.9-2.3-5.1-5.4-0.7-9.5-6.5-12.5-15.3-14-17.2-3-34.4-4.4-51.8-5.1-4.2-0.2-7.1 1.1-8.5 5.2-2.2 6.6-6 10.1-13.6 9.6-6-0.3-12.1 0.8-18.1 1.5-3.9 0.4-4.3-0.6-2.8-4.1 11.6-25.1 24.5-49.4 39.7-72.6 8.1-12.4 16.6-24.5 25.5-36.4 1.1-1.5 2.6-2.9 3-4.8q1.9 0 3.8 0zm21.8 81.1c2.8 0.2 3-1.3 2.1-3.6-4.3-11.1-9.2-22-14.7-32.6-1.5-3-2.8-3.4-5-0.6-7.3 9.2-14.5 18.5-21 28.3-2.4 3.5-0.8 4.4 2.4 4.6q6.7 0.5 13.3 0.9c7.7 0.4 15.2 1.7 22.9 3z"/>
				<path id="&lt;Path&gt;" class="s1" d="m717.3 178.2c1.3-0.3 2.3 0.6 2.7 2.5q1.9 9.4 3.7 18.8c0.8 3.6-1.9 3.7-4.3 4.2-14.9 2.9-29.6 6.4-43.9 11.5-7.4 2.7-14.6 5.6-22 8.3-2.9 1-3.6 2.5-2.3 5.4 1.6 3.6 3.2 7.3 4.5 11 1.2 3.2 2.8 3.6 5.9 2.4 15-6.4 30.5-11.3 46.3-15.1 4.3-1.1 6.6-0.4 7.4 4.3 0.8 4.7 2.1 9.3 3.4 13.9 1 3.7 0.1 5.5-3.9 6.4-14.6 3.3-28.8 8-42.8 13.6-4 1.6-4.7 3.4-2.8 7 1.4 2.9 2.7 5.8 3.7 8.9 1.2 3.9 3.1 4.7 7 3 16.4-7 33.3-12 50.8-15.4 6.5-1.3 6.5-1.3 7.8 5 0.9 4.6 1.6 9.1 2.8 13.6 1 4-0.5 5.4-4.3 6.2-17.7 3.5-35.1 8-51.7 15.4-7.4 3.3-14.8 6.7-22 10.4-3.6 1.9-5.5 1.7-7.5-2.1q-24.6-47.1-49.7-93.9c-2-3.9-1.5-5.6 2.4-7.7 33.1-17.2 67.9-29.3 104.3-36.9 1.3-0.2 2.5-0.4 4.5-0.7z"/>
				<path id="&lt;Path&gt;" class="s1" d="m479.8 357.8c-0.4-0.1-0.9-0.2-1.3-0.5-5.6-4-11.2-8-16.6-12.1-2.4-1.8-0.6-3.3 0.7-4.8 7-8.2 13.8-16.6 21.1-24.7 20.8-23.2 43.4-44.4 67.6-64 4.8-3.9 4.8-3.9 8.4 1.2 2.7 3.9 5.4 7.8 8.4 11.6 2.2 2.8 2.2 4.8-1 7-9.2 6.1-17.5 13.3-25.9 20.4-3.2 2.7-3.9 4.3-0.7 7.8 18.6 20.4 36.8 41.1 55.2 61.6 1.8 2 2 3.4-0.1 5.1-5.8 5.2-11.6 10.5-16.5 16.6-2.1 2.5-3.8 1.5-5.6-0.2q-14.5-13.3-28.9-26.5c-10.8-9.9-21.7-19.7-32.4-29.8-2.5-2.3-4.2-1.9-6.3 0.4-8 9-15.6 18.2-22.6 27.9-0.9 1.2-1.7 2.8-3.5 3z"/>
			</g>
		</g>
		<g id="&lt;Group&gt;">
			<path id="&lt;Compound Path&gt;" fill-rule="evenodd" class="s2" d="m734.2 1041.6c-5.6-1.2-11.3-2.1-16.8-3.6-12.4-3.4-23-9.8-31.8-19.2-20.8-22.4-16.8-51.9 9.3-68 29.9-18.3 71-10.8 92.3 17 19 24.7 11.5 54.5-16.8 67.5-7 3.3-14.4 4.8-21.9 6.3q-7.2 0-14.3 0zm2.6-6.9c15.3 0 26-2.9 34.8-8.6 19.4-12.6 23.5-35 9.9-53.6-18.8-25.9-56-32.6-83-15.1-19.5 12.7-23.4 36.3-8.9 54.4 13 16.2 30.8 22 47.2 22.9z"/>
			<path id="&lt;Compound Path&gt;" fill-rule="evenodd" class="s2" d="m549.8 959.7q23.9-31.5 47.7-63c2.7-3.5 5.4-7 8.1-10.6 1-1.4 2.1-2.3 3.9-1 17.7 12.4 33.3 26.5 36.6 49.3 4 27.2-12.1 47.1-37.6 49.5-18.3 1.6-33.9-5.2-48.7-14.9-3.3-2.1-6.3-4.9-10-6.4q0-1.4 0-2.9zm50.8 17c3.8 0.2 7.4-0.3 10.9-1.1 17.8-3.9 29.3-20.7 27.3-38.6-2.2-18.2-12.4-30.7-26.4-41.2-2.3-1.6-3.7-1.1-5.2 0.9-3 4.3-6.1 8.5-9.1 12.8q-17.5 24.1-35 48.2c-1.2 1.7-3.1 3.4 0 5.4 11.5 7.3 23.5 13.3 37.5 13.6z"/>
			<path id="&lt;Path&gt;" class="s2" d="m902.1 935.7c5.1-0.4 10.9 0.5 16.6 2.1 1.6 0.4 4.3 0.4 3.2 3.4-0.8 2.3-2.2 4.4-5.3 3.4-7.3-2.4-14.8-2.5-22.2-1.7-21.2 2.1-37.8 11.8-48.1 30.7-10.2 18.9-4.1 38.7 14.5 49.4 22.4 12.7 59.1 6.6 76.2-12.7 1.6-1.9 1.7-3.5 0.9-5.6-2.6-6.9-4.8-13.8-7.4-20.6-1.1-2.9-0.2-4.3 2.6-5.4 2.9-1.2 4.3-0.2 5.3 2.5q4.2 11.7 8.8 23.2c1 2.6 0.2 4.5-1.5 6.4-12.5 15.2-29.1 22.6-48.2 25.3-16 2.2-31.1-0.3-44.7-9.2-19.5-12.5-25.1-36.1-13.7-56.2 12.6-22.1 35.5-35 63-35z"/>
			<path id="&lt;Path&gt;" class="s2" d="m982.6 933.8c9.3 0.2 18.1-3.3 27.2-4.3 5.8-0.6 11.4-0.7 17.1 0.6 13.3 3.3 20.4 14.9 17.3 28.3-5.3 22.7-32.8 39.6-55.4 34-4.1-1.1-7.7-2.9-10.9-5.6-1.7-1.5-3.1-3.1-0.8-5.1 1.8-1.5 3.3-4.4 6.3-1.5 7.1 6.8 15.7 7.2 24.5 4.9 11.9-3.1 21.2-9.8 26.6-21.3 6.5-14.1-1.6-26.9-17.2-27.6-9.9-0.5-19.2 2.2-28.7 4.1-4.7 1-9.5 1-14.3 0.5-11.9-1.4-18.8-12.6-15.3-24.6 3.9-13.4 19.2-22 32.8-18.3 2 0.5 5.5 0.5 4.6 4-0.9 3.2-3.3 4-6.8 2.9-9.6-2.9-19.8 2.3-23.2 11.5-3.2 8.6 1.8 16.6 11 17.5 1.7 0.2 3.4 0 5.2 0z"/>
		</g>
		<g id="&lt;Group&gt;">
			<path id="&lt;Compound Path&gt;" fill-rule="evenodd" class="s3" d="m345.8 625.4c0.1-4.3 1.1-8.3 3.8-11.7 2.9-3.7 2.9-7.7 0.1-11.1-3.1-4-4.1-8.5-3.9-13.3 0.5-8.6 6.9-15.9 15.2-17.8 10.1-2.2 19.2 3.6 22.6 12q0.2 0.5 0.5 1c2.1 4.1 2.1 4.1 6.7 4.1 19.6 0 39.1 0 58.6 0 1.7 0 2.8-0.5 3.6-1.9q1-1.6 1.8-3.3c3-6.6 7.9-10.8 15.2-12.1 11.6-2 21.9 7.5 22.4 17.3 0.3 5.2-0.6 9.8-3.8 13.9-2.9 3.7-2.7 7.6 0.3 11.4 5.2 6.8 4.9 17.3-0.7 23.8-4 4.8-9.1 7.4-15.3 7.3-8.4-0.1-14.4-4.4-18-12-2-4.4-1.9-4.4-6.8-4.4q-30.4 0-60.8 0c-1.1 0-1.8 0.3-2.3 1.3-0.5 1-1 1.9-1.5 2.9-3.5 7.6-9.4 11.9-17.8 12.2-11.1 0.4-18.8-8.6-19.7-16.4-0.1-1.1-0.3-2.1-0.2-3.2zm73.3 0.8q15.1 0 30.3 0c4.9 0 5.3 0.2 7.4 4.8q0.2 0.4 0.4 0.9c5 12.1 21 14.4 29.2 4.1 4.8-5.9 4.9-15.3 0.4-20.8-3.5-4.1-3.6-9.7-0.3-14 2.5-3.2 3.6-6.8 3.6-10.8-0.1-8.1-5.8-14.9-13.9-16.6-7.8-1.5-15.8 2.8-18.9 10.1-0.9 2.1-1.9 3.9-3.3 5.6-1 1.1-2.1 1.6-3.6 1.6-10.9 0-21.9 0-32.8 0-10 0-20 0-29.9 0-1.2 0-2.1-0.3-2.9-1.2-1.6-1.7-2.8-3.7-3.7-5.8-3.1-7.5-11-11.8-18.9-10.3-12.6 2.4-18.2 17.2-10.4 27.4 3.2 4.2 3.3 9.5 0 13.7-2.7 3.5-3.8 7.4-3.5 11.8 0.7 9 8.2 16.1 17.2 15.8 7.4-0.2 12.7-3.8 15.7-10.6q1-2.3 2.3-4.3c0.7-1 1.6-1.4 2.9-1.4 10.9 0 21.8 0 32.7 0z"/>
		</g>
		<g id="&lt;Group&gt;">
			<path id="&lt;Compound Path&gt;" fill-rule="evenodd" class="s3" d="m1108.9 625.4c0.1-4.3 1.1-8.3 3.8-11.7 3-3.7 3-7.7 0.2-11.1-3.2-4-4.2-8.5-3.9-13.3 0.4-8.6 6.8-15.9 15.2-17.8 10.1-2.2 19.1 3.6 22.5 12q0.2 0.5 0.5 1c2.1 4.1 2.1 4.1 6.7 4.1 19.6 0 39.1 0 58.7 0 1.6 0 2.7-0.5 3.5-1.9q1-1.6 1.8-3.3c3.1-6.6 7.9-10.8 15.2-12.1 11.7-2 21.9 7.5 22.5 17.3 0.3 5.2-0.6 9.8-3.9 13.9-2.8 3.7-2.6 7.6 0.3 11.4 5.2 6.8 4.9 17.3-0.6 23.8-4.1 4.8-9.2 7.4-15.4 7.3-8.4-0.1-14.4-4.4-18-12-2-4.4-1.9-4.4-6.8-4.4q-30.4 0-60.8 0c-1.1 0-1.8 0.3-2.3 1.3-0.4 1-1 1.9-1.4 2.9-3.6 7.6-9.4 11.9-17.9 12.2-11 0.4-18.8-8.6-19.6-16.4-0.1-1.1-0.3-2.1-0.3-3.2zm73.3 0.8q15.1 0 30.3 0c4.9 0 5.3 0.2 7.4 4.8q0.2 0.4 0.4 0.9c5.1 12.1 21 14.4 29.3 4.1 4.7-5.9 4.9-15.3 0.3-20.8-3.5-4.1-3.6-9.7-0.3-14 2.5-3.2 3.7-6.8 3.6-10.8-0.1-8.1-5.8-14.9-13.9-16.6-7.7-1.5-15.7 2.8-18.9 10.1-0.8 2.1-1.9 3.9-3.3 5.6-1 1.1-2 1.6-3.6 1.6-10.9 0-21.9 0-32.8 0-10 0-19.9 0-29.9 0-1.2 0-2-0.3-2.9-1.2-1.6-1.7-2.7-3.7-3.6-5.8-3.2-7.5-11.1-11.8-19-10.3-12.6 2.4-18.2 17.2-10.4 27.4 3.3 4.2 3.3 9.5 0.1 13.7-2.8 3.5-3.9 7.4-3.6 11.8 0.7 9 8.3 16.1 17.3 15.8 7.3-0.2 12.6-3.8 15.6-10.6q1-2.3 2.4-4.3c0.7-1 1.5-1.4 2.8-1.4 10.9 0 21.8 0 32.7 0z"/>
		</g>
		<g id="&lt;Group&gt;">
			<path id="&lt;Path&gt;" class="s0" d="m809.1 92.5c0.8 1.3 3.3 2.4 1 4.2-1.4 1.1-3.2 1-4.5 0.1-2.2-1.5-0.3-2.9 0.7-4.3q1.4 0 2.8 0z"/>
			<path id="&lt;Path&gt;" class="s0" d="m1318.3 614.1c-2.7 0.5-4.2-0.1-4.2-3.3 0-3.3 1.6-3.7 4.2-3.4q0 3.4 0 6.7z"/>
			<path id="&lt;Path&gt;" class="s0" d="m283.7 595c1.3-0.8 2.7-2.2 4-0.2 0.9 1.2 0.9 2.8 0.1 4-1.3 1.9-2.7 0.8-4.1 0q0-1.9 0-3.8z"/>
			<path id="&lt;Path&gt;" class="s0" d="m283.7 620.8c1.3-0.8 2.7-2 4 0 0.8 1.2 0.9 2.7 0 4-1.3 1.9-2.7 0.7-4-0.2q0-1.9 0-3.8z"/>
			<path id="&lt;Path&gt;" class="s0" d="m1318.3 639c-1.5 0.6-3.2 2.3-4.5 0.2-0.8-1.3-0.8-3.2 0.4-4.4 2-1.8 2.8 0.6 4.1 1.3q0 1.5 0 2.9z"/>
			<path id="&lt;Path&gt;" class="s0" d="m1318.3 586.4c-1.7 0.7-3.6 2.2-4.6-0.6-0.5-1.4-0.8-3.1 1-4.2 2.1-1.2 2.3 1.4 3.6 1.9q0 1.4 0 2.9z"/>
			<path id="&lt;Path&gt;" class="s0" d="m809.1 1127.1q0 0.5 0 0.9-2.4 0-4.8 0 0.1-0.5 0.1-1 2.4-1.9 4.7 0.1z"/>
			<path id="&lt;Path&gt;" class="s0" d="m887.2 1118.5c-0.1 2.1-1.7 2.4-3.3 2.7-1.6 0.2-2.9-0.5-2.9-2.2 0.1-1.8 1.5-2.2 3-2.4 1.6-0.2 2.8 0.2 3.2 1.9z"/>
			<path id="&lt;Path&gt;" class="s0" d="m293.5 696.7c2.2 0.7 2.5 2.5 2.5 4.2 0 1.4-1 2.4-2.5 2.1-2-0.4-2.1-2.1-2.1-3.7-0.1-1.6 0.9-2.2 2.1-2.6z"/>
			<path id="&lt;Path&gt;" class="s0" d="m755.9 99.2c-1.7 0.2-3-0.5-2.8-2.2 0.2-2 2.1-2.1 3.6-2.2 1.3-0.1 2.6 0.6 2.5 2.1 0 2.1-1.7 2.3-3.3 2.3z"/>
			<path id="&lt;Path&gt;" class="s0" d="m307.7 468.3c-0.1 2.1-0.5 3.7-2.3 4-1.5 0.2-2.5-0.9-2.4-2.3 0.1-1.7 0.6-3.7 2.7-3.8 1.5-0.2 2.1 1 2 2.1z"/>
			<path id="&lt;Path&gt;" class="s0" d="m729.9 102.1c-1.4 0.2-2.6-0.4-2.6-1.9 0.1-2.4 2.1-2.5 3.8-2.6 1.4-0.1 2.4 0.8 2.3 2.3-0.2 2.1-1.9 2.2-3.5 2.2z"/>
			<path id="&lt;Path&gt;" class="s0" d="m1135.6 1000.4c0.3-1.8 1.5-2.9 3.3-3.4 1.2-0.3 2.2 0.2 2.3 1.6 0.2 2.4-1.5 3.4-3.4 3.9-1.1 0.2-2-0.7-2.2-2.1z"/>
			<path id="&lt;Path&gt;" class="s0" d="m679.5 111.7c-1.8 0.2-3-0.3-3-1.8 0-2.4 2.1-2.5 3.7-2.7 1.4-0.1 2.6 0.8 2.4 2.2-0.2 1.9-1.9 2.2-3.1 2.3z"/>
			<path id="&lt;Path&gt;" class="s0" d="m371.7 891.5c0.1 1.6-0.6 2.5-1.8 2.6-2.1 0.1-3-1.7-3.4-3.3-0.5-1.5 0.6-2.6 2-2.6 2.1 0 2.6 1.9 3.2 3.3z"/>
			<path id="&lt;Path&gt;" class="s0" d="m1211 300.2c-2.1 0-2.8-1.8-3.3-3.4-0.3-1.1 0.6-2.3 1.9-2.2 2.1 0.1 3 1.6 3.4 3.4 0.2 1.3-0.5 2.1-2 2.2z"/>
			<path id="&lt;Path&gt;" class="s0" d="m832.5 1122.3c1.6-0.1 3.1 0.2 3.3 2 0.2 2.1-1.6 2.5-3.2 2.6-1.6 0-3-0.5-3-2.3 0-1.7 1.3-2.3 2.9-2.3z"/>
			<path id="&lt;Path&gt;" class="s0" d="m1035.4 150.2c0 1.3-0.8 2.2-1.9 2.2-1.8-0.1-3.6-0.7-4.1-2.6-0.3-1.5 0.8-2.6 2.2-2.5 1.7 0.1 3.2 1 3.8 2.9z"/>
			<path id="&lt;Path&gt;" class="s0" d="m1101.9 190.5c-0.2 1.5-1.2 2.4-2.2 2.1-1.7-0.5-3.7-1.2-3.4-3.6 0.1-1.4 1.1-2 2.3-1.7 1.6 0.5 3.1 1.3 3.3 3.2z"/>
			<path id="&lt;Path&gt;" class="s0" d="m324.7 419.2c-0.7 1.7-0.7 3.7-2.9 3.9-1.3 0.1-2.3-0.8-2.1-2 0.2-1.6 0.4-3.6 2.5-4 1.6-0.3 2.1 1 2.5 2.1z"/>
			<path id="&lt;Path&gt;" class="s0" d="m603.9 1084.1c1.4 0.7 3.5 0.7 3.7 2.9 0.2 1.6-1 2.1-2.4 2-1.6-0.1-3.2-0.6-3.6-2.4-0.3-1.5 0.9-2.2 2.3-2.5z"/>
			<path id="&lt;Path&gt;" class="s0" d="m1227.2 903.5c-0.4 1.2-1.1 2.9-3.1 2.9-1.4 0-2.4-1.1-2-2.5 0.5-1.6 1.4-3.3 3.5-3.2 1.2 0.1 2 0.9 1.6 2.8z"/>
			<path id="&lt;Path&gt;" class="s0" d="m296.1 519.1c0 1.7-0.5 3.3-2.3 3.6-1.2 0.2-2.4-0.7-2.3-2.2 0.1-1.7 0.2-3.7 2.5-3.9 1.5-0.1 2.1 1 2.1 2.5z"/>
			<path id="&lt;Path&gt;" class="s0" d="m1225.2 315.5c1.9 0.2 2.6 1.7 3 3.4 0.2 1.4-0.7 2.5-2.2 2.3-2.1-0.2-2.7-2-3-3.7-0.3-1.1 0.6-1.9 2.2-2z"/>
			<path id="&lt;Path&gt;" class="s0" d="m370.3 325.2c1.5 0.4 2.6 1.2 2.2 2.6-0.5 1.6-1.3 3.3-3.5 3.2-1.2-0.1-2.1-1-1.8-2.2 0.4-1.6 1.3-3.2 3.1-3.6z"/>
			<path id="&lt;Path&gt;" class="s0" d="m1242.3 340.3c0.1 1.6-0.7 2.7-2.1 2.6-2-0.1-2.7-2-3.1-3.6-0.3-1.2 0.8-2.2 1.9-2.2 2.1-0.1 2.6 1.8 3.3 3.2z"/>
			<path id="&lt;Path&gt;" class="s0" d="m628.5 1093.6c1.5 0.6 3.5 0.7 3.4 3-0.1 1.5-1.4 2-2.8 1.7-1.5-0.2-3.2-0.8-3.3-2.6 0-1.5 1.1-2.2 2.7-2.1z"/>
			<path id="&lt;Path&gt;" class="s0" d="m304.9 747.3c2.1 0.4 2.4 2.2 2.6 3.8 0.2 1.5-0.9 2.5-2.3 2.3-1.8-0.2-2.2-1.8-2.4-3.5-0.1-1.5 0.6-2.3 2.1-2.6z"/>
			<path id="&lt;Path&gt;" class="s0" d="m581.8 1078.9c-2-0.7-3.9-1.1-3.9-3.3 0-1.2 1-2.2 2.2-1.9 1.6 0.3 3.6 0.8 3.8 2.9 0.1 1.5-1.1 2-2.1 2.3z"/>
			<path id="&lt;Path&gt;" class="s0" d="m1100.7 1030.9c-0.2 2-1.8 2.8-3.4 3.3-1.2 0.4-2.2-0.4-2.4-1.6-0.2-2.2 1.5-3.1 3.1-3.6 1.3-0.5 2.3 0.4 2.7 1.9z"/>
			<path id="&lt;Path&gt;" class="s0" d="m1120.2 208.3c-1.5-0.8-3.2-1.6-3.3-3.5 0-1.1 0.8-2.4 2.1-2 1.8 0.4 3.7 1.3 3.6 3.6 0 1.2-1 1.9-2.4 1.9z"/>
			<path id="&lt;Path&gt;" class="s0" d="m1282.3 432c0.3-1.3 0.9-2.5 2.4-2.2 2.2 0.3 2.4 2.3 2.6 3.9 0.1 1.2-0.9 2.2-2.1 2.1-2.3-0.1-2.3-2.2-2.9-3.8z"/>
			<path id="&lt;Path&gt;" class="s0" d="m289.8 542.3c1.7 0 2.5 0.9 2.4 2.4 0 1.6-0.2 3.4-2.3 3.5-1.4 0.1-2.4-0.9-2.2-2.4 0.1-1.5 0.1-3.2 2.1-3.5z"/>
			<path id="&lt;Path&gt;" class="s0" d="m881.9 101.9c0.2-1.6 1.2-2.4 2.5-2.2 1.6 0.2 3.8 0.2 3.8 2.6 0 1.5-1.4 1.8-2.7 1.8-1.7-0.1-3.2-0.3-3.6-2.2z"/>
			<path id="&lt;Path&gt;" class="s0" d="m289.5 648.8c0 1.7-0.5 2.9-2.4 2.8-1.9-0.2-2-1.9-2.1-3.2-0.1-1.6 0.5-2.9 2.4-2.8 1.8 0.2 2 1.7 2.1 3.2z"/>
			<path id="&lt;Path&gt;" class="s0" d="m289.8 677.3c-2.1-0.2-2.1-1.8-2.2-3.4-0.1-1.5 0.6-2.6 2.1-2.5 2.2 0.1 2.3 1.9 2.4 3.4 0.1 1.4-0.6 2.5-2.3 2.5z"/>
			<path id="&lt;Path&gt;" class="s0" d="m1312.5 688.7c-0.1 1.5-0.3 3-2.3 2.9-1.9 0-2.4-1.3-2.1-2.9 0.3-1.4 0.4-3 2.4-3 2 0 2.2 1.4 2 3z"/>
			<path id="&lt;Path&gt;" class="s0" d="m298.3 722.3c2.1 0.1 2.5 1.6 2.6 3.3 0.2 1.3-0.1 2.5-1.8 2.6-2.3 0.1-2.3-1.8-2.7-3.2-0.3-1.4 0.5-2.4 1.9-2.7z"/>
			<path id="&lt;Path&gt;" class="s0" d="m1282 789.5c0.6-1.5 0.7-3.5 2.9-3.7 1.5 0 2.1 1.1 1.9 2.6-0.2 1.6-0.8 3.3-2.5 3.5-1.3 0.2-2.3-0.8-2.3-2.4z"/>
			<path id="&lt;Path&gt;" class="s0" d="m988 129.3c-0.2 1.5-1.1 2.3-2.6 2-1.4-0.4-3.3-0.6-3.3-2.8 0-1.3 0.8-2.2 2.1-2 1.6 0.3 3.5 0.5 3.8 2.8z"/>
			<path id="&lt;Path&gt;" class="s0" d="m605 135.8c-1.4 0-2.6-0.7-2.3-2.2 0.4-1.9 2.2-2.5 3.9-2.7 1.3-0.1 2.2 0.9 2.1 2.1-0.1 2.2-2 2.5-3.7 2.8z"/>
			<path id="&lt;Path&gt;" class="s0" d="m331.5 820.2c2 0.5 2.6 2.2 2.8 3.9 0.2 1.2-0.8 2.2-2.1 2.1-2.1-0.2-2.7-2-2.8-3.8-0.1-1.3 0.7-2 2.1-2.2z"/>
			<path id="&lt;Path&gt;" class="s0" d="m1263.7 839.5c-1.2-0.1-2.1-0.7-2-2 0-1.8 0.7-3.5 2.5-4 1.4-0.3 2.5 0.8 2.4 2.2-0.2 1.8-0.8 3.4-2.9 3.8z"/>
			<path id="&lt;Path&gt;" class="s0" d="m561.9 154.7c-0.2 2-1.6 2.8-3.2 3.1-1.4 0.3-2.8-0.2-2.7-1.8 0-2.1 2-2.7 3.6-3.1 1.4-0.3 1.9 0.8 2.3 1.8z"/>
			<path id="&lt;Path&gt;" class="s0" d="m345.7 847.2c-0.3 1.5-0.9 2.4-2.2 2.2-2.2-0.2-2.7-2.1-3-3.8-0.1-1.2 0.9-2.1 2.1-2 2.3 0.2 2.4 2.2 3.1 3.6z"/>
			<path id="&lt;Path&gt;" class="s0" d="m539.3 168c-0.3 1.9-2 2.5-3.7 2.8-1.2 0.2-2.2-0.9-2.1-2.1 0.2-2.2 2.1-2.8 3.8-3.1 1.2-0.2 2 0.7 2 2.4z"/>
			<path id="&lt;Path&gt;" class="s0" d="m1249.5 859.9c0.7-1.3 1-3.4 3.2-3.3 1.4 0.1 2.3 1.1 1.9 2.6-0.5 1.7-1.2 3.4-3.4 3.2-1.2-0.1-1.9-1-1.7-2.5z"/>
			<path id="&lt;Path&gt;" class="s0" d="m356.1 872.2c-2.1-0.4-2.7-2-3.2-3.6-0.4-1.3 0.6-2.3 1.7-2.4 2.2-0.2 2.9 1.7 3.4 3.3 0.6 1.5-0.7 2.2-1.9 2.7z"/>
			<path id="&lt;Path&gt;" class="s0" d="m1241.6 881.1c-0.5 1.5-0.9 3.3-2.9 3.7-1.5 0.3-2.5-0.9-2.3-2.2 0.2-1.7 1-3.4 3.1-3.6 1.2-0.1 2 0.7 2.1 2.1z"/>
			<path id="&lt;Path&gt;" class="s0" d="m452 986.8c1.4 0.9 3.3 1.5 3.2 3.7-0.1 1.4-1.1 2-2.3 1.8-1.8-0.4-3.2-1.5-3.2-3.5 0-1.3 1-1.9 2.3-2z"/>
			<path id="&lt;Path&gt;" class="s0" d="m491.7 1019.9c1.6 0.9 3.4 1.5 3.4 3.6-0.1 1.4-1.1 2.4-2.5 1.8-1.6-0.5-3.3-1.3-3.1-3.5 0.1-1.4 1.2-1.6 2.2-1.9z"/>
			<path id="&lt;Path&gt;" class="s0" d="m1076.8 1043.2c1.5 0.3 2.4 0.9 2.2 2.3-0.2 2.1-1.8 2.8-3.6 3-1.3 0.1-2.2-0.9-2-2.1 0.1-2.2 2.2-2.4 3.4-3.2z"/>
			<path id="&lt;Path&gt;" class="s0" d="m1057 1058.9c-0.4 1.9-2 2.6-3.8 2.9-1.2 0.2-2-0.8-1.9-2.1 0.1-2.3 2-2.7 3.6-3 1.2-0.2 2.1 0.7 2.1 2.2z"/>
			<path id="&lt;Path&gt;" class="s0" d="m437.8 247.2c-0.5 1.7-1.5 3.1-3.5 3.3-1.1 0.2-2.2-0.5-2.1-1.9 0.2-2 1.5-3.2 3.4-3.5 1.2-0.2 2 0.7 2.2 2.1z"/>
			<path id="&lt;Path&gt;" class="s0" d="m983.6 1094.5c-1.9 0.1-2.8-0.9-2.6-2.3 0.3-1.8 2-2.3 3.6-2.4 1.3-0.2 2.3 0.5 2.4 1.7 0 2.4-2.1 2.4-3.4 3z"/>
			<path id="&lt;Path&gt;" class="s0" d="m656.6 1104.4c-0.2 1.5-1.2 2.1-2.7 1.9-1.6-0.2-3.4-0.4-3.4-2.5-0.1-1.4 1.1-2.3 2.5-2.1 1.5 0.3 3.3 0.5 3.6 2.7z"/>
			<path id="&lt;Path&gt;" class="s0" d="m912.5 1113.6c0.1 2.3-1.7 2.5-3.2 2.8-1.5 0.3-2.6-0.4-2.7-1.9-0.1-2.2 1.6-2.5 3.2-2.7 1.4-0.1 2.5 0.2 2.7 1.8z"/>
			<path id="&lt;Path&gt;" class="s0" d="m729 1118.4c2 0.1 3.5 0.5 3.4 2.6-0.1 1.4-1.3 2-2.7 1.8-1.5-0.3-3.4-0.3-3.4-2.4 0-1.9 1.5-2 2.7-2z"/>
			<path id="&lt;Path&gt;" class="s0" d="m754.8 1121.3c1.7 0 3.4 0.3 3.4 2.4 0 1.4-1.2 2.2-2.6 2-1.5-0.1-3.5-0.2-3.6-2.2-0.2-1.7 1.3-2.3 2.8-2.2z"/>
			<path id="&lt;Path&gt;" class="s0" d="m1267.2 385.9c-0.1 1.2-0.5 2.2-1.9 2.3-2.3 0.1-2.7-2-3.1-3.5-0.4-1.2 0.4-2.3 1.8-2.3 2.3-0.1 2.6 1.9 3.2 3.5z"/>
			<path id="&lt;Path&gt;" class="s0" d="m315.5 443.6c-0.3 1.9-0.5 3.6-2.5 3.8-1.5 0.3-2.6-0.8-2.3-2.2 0.3-1.6 0.5-3.7 3-3.6 1.4 0.1 1.8 1 1.8 2z"/>
			<path id="&lt;Path&gt;" class="s0" d="m1292.7 454.3c2.2 0.1 2.5 1.7 2.7 3.3 0.2 1.4-0.2 2.5-1.9 2.6-2.3 0.1-2.3-1.9-2.7-3.3-0.5-1.4 0.5-2.3 1.9-2.6z"/>
			<path id="&lt;Path&gt;" class="s0" d="m631.2 122c0.7-0.1 1.8 0.5 1.7 2.1-0.2 2.1-2.2 2.2-3.6 2.5-1.5 0.3-2.6-0.9-2.4-2.2 0.2-1.8 1.9-2.3 4.3-2.4z"/>
			<path id="&lt;Path&gt;" class="s0" d="m833.7 98.3c-1.5 0-3-0.3-3.1-2.1 0-1.7 1.4-2.5 3-2.3 1.3 0.3 3.1 0.3 3.1 2.2 0 1.9-1.4 2.3-3 2.2z"/>
			<path id="&lt;Path&gt;" class="s0" d="m315.2 775.5c0 1.8-0.7 2.5-2 2.5-2.3-0.1-2.6-1.9-2.7-3.7 0-1.2 0.7-2.2 1.9-2.1 2.4 0.1 2.1 2.3 2.8 3.3z"/>
			<path id="&lt;Path&gt;" class="s0" d="m1118 1018.9c-1.6-0.2-2.6-1-2.4-2.2 0.4-1.9 1.9-3.2 3.9-3.3 1.2 0 2 1.1 1.8 2.4-0.4 1.9-2 2.5-3.3 3.1z"/>
			<path id="&lt;Path&gt;" class="s0" d="m1179.7 258.3c-0.3 1.6-0.9 2.7-2.2 2.4-1.8-0.3-3.1-1.6-3.3-3.5-0.1-1.2 0.7-2.1 2.1-2 2.1 0.2 2.8 1.8 3.4 3.1z"/>
			<path id="&lt;Path&gt;" class="s0" d="m935.1 110.6c2 0.3 3.7 0.7 3.5 2.8-0.1 1.5-1.3 2.3-2.7 1.8-1.4-0.4-3.4-0.6-3.2-2.8 0.1-1.8 1.5-1.7 2.4-1.8z"/>
			<path id="&lt;Path&gt;" class="s0" d="m657.6 116c-0.4 1.9-1.9 2.4-3.6 2.5-1.5 0.2-2.6-0.5-2.6-2 0.1-2.1 2.1-2.2 3.6-2.6 1.6-0.4 2.2 0.7 2.6 2.1z"/>
			<path id="&lt;Path&gt;" class="s0" d="m1305.8 504.3c2.2 0.4 2.3 2.2 2.5 3.7 0.1 1.4-0.8 2.6-2.2 2.5-2-0.2-2.2-2-2.3-3.7-0.1-1.4 0.6-2.3 2-2.5z"/>
			<path id="&lt;Path&gt;" class="s0" d="m1193 947.4c-1.7-0.1-2.7-0.8-2.6-2 0.2-1.9 1.4-3.3 3.2-3.6 1.2-0.2 2.1 0.6 2.1 1.9 0.1 2.1-1.6 2.9-2.7 3.7z"/>
			<path id="&lt;Path&gt;" class="s0" d="m1008.4 136.4c1.5 0.4 3.4 0.6 3.5 2.9 0.1 1.3-0.9 2.1-2.1 1.9-1.7-0.2-3.6-0.6-3.7-2.9-0.1-1.4 0.8-1.9 2.3-1.9z"/>
			<path id="&lt;Path&gt;" class="s0" d="m399.8 289.3c-1.2-0.2-2.3-0.8-2.1-2.1 0.3-1.9 1.4-3.3 3.3-3.5 1.3-0.1 2.3 0.7 2.1 2-0.3 1.8-1.6 3-3.3 3.6z"/>
			<path id="&lt;Path&gt;" class="s0" d="m471.3 1003.9c1.7 0.5 3.1 1.5 3.4 3.4 0.2 1.2-0.6 2.1-1.9 2-1.9-0.1-3.2-1.3-3.6-3.2-0.2-1.2 0.7-2 2.1-2.2z"/>
			<path id="&lt;Path&gt;" class="s0" d="m1077.7 177.9c-1.4-0.4-3-1-3.1-3.1 0-1.2 0.9-2.1 2.3-1.8 1.7 0.3 3.4 1 3.5 3.1 0 1.4-1 1.9-2.7 1.8z"/>
			<path id="&lt;Path&gt;" class="s0" d="m1154.7 982.8c0.5-1.6 1.5-3 3.5-3.2 1.2-0.2 2.2 0.4 2.1 1.9-0.1 2.1-1.6 3.1-3.3 3.5-1.1 0.3-2.1-0.6-2.3-2.2z"/>
			<path id="&lt;Path&gt;" class="s0" d="m493 199.6c-1.4 0-2.4-0.6-2.4-1.9 0.1-2 1.8-3 3.5-3.4 1.2-0.3 2.2 0.7 2.2 1.9 0 2.2-1.7 2.8-3.3 3.4z"/>
			<path id="&lt;Path&gt;" class="s0" d="m476 212.4c-0.5 1.9-1.8 3-3.7 3.2-1.2 0.2-2.1-0.8-1.9-2.1 0.3-1.9 1.7-3 3.5-3.2 1.3-0.1 2 0.8 2.1 2.1z"/>
			<path id="&lt;Path&gt;" class="s0" d="m1210 921.4c1.5 0.5 2.3 1.2 2 2.5-0.4 1.8-1.3 3.3-3.4 3.3-1.3 0-2.1-1.1-1.8-2.3 0.4-1.7 1.6-2.9 3.2-3.5z"/>
			<path id="&lt;Path&gt;" class="s0" d="m398.7 930c1.9 0.8 3.2 1.9 3.4 3.8 0.2 1.3-0.9 2.1-2.1 2-2-0.3-3-1.7-3.2-3.6-0.1-1.4 1-1.8 1.9-2.2z"/>
			<path id="&lt;Path&gt;" class="s0" d="m1275.9 411.8c-1.9-0.3-2.5-1.7-2.8-3.2-0.4-1.5 0.1-2.7 1.6-2.9 2.3-0.2 2.6 1.9 3.1 3.4 0.5 1.5-0.7 2.2-1.9 2.7z"/>
			<path id="&lt;Path&gt;" class="s0" d="m324.1 799.9c0.1 1.4-0.4 2.6-2 2.6-2-0.1-2.4-1.9-2.8-3.4-0.4-1.5 0.6-2.6 2-2.6 1.9 0 2.4 1.7 2.8 3.4z"/>
			<path id="&lt;Path&gt;" class="s0" d="m1274.7 816c-1.7-0.2-2.5-1.1-2.2-2.6 0.3-1.4 0.6-3.2 2.7-3.3 1.3-0.1 2.1 0.6 2 2-0.1 1.7-0.6 3.4-2.5 3.9z"/>
			<path id="&lt;Path&gt;" class="s0" d="m557.3 1062c1.4 0.6 3.3 0.9 3.3 3.2 0 1.3-1 2-2.2 1.7-1.8-0.3-3.6-0.8-3.6-3 0-1.2 1-1.9 2.5-1.9z"/>
			<path id="&lt;Path&gt;" class="s0" d="m334.7 395.7c-0.3 1.7-0.9 3.4-2.9 3.6-1.1 0.1-2.2-0.8-2-2.1 0.2-1.7 0.7-3.6 2.7-3.9 1.5-0.3 2.1 0.9 2.2 2.4z"/>
			<path id="&lt;Path&gt;" class="s0" d="m1007.5 1084.9c-1.7-0.1-2.6-0.8-2.5-2 0-2.2 1.8-2.7 3.6-2.9 1.2-0.1 2.3 0.5 2.3 1.8-0.1 2.4-2.3 2.3-3.4 3.1z"/>
			<path id="&lt;Path&gt;" class="s0" d="m704.2 1118.5c-1.7-0.1-3.4-0.3-3.3-2.4 0-1.6 1.1-2.3 2.5-2 1.4 0.3 3.4 0.1 3.3 2.5 0 1.8-1.2 1.9-2.5 1.9z"/>
			<path id="&lt;Path&gt;" class="s0" d="m959.7 1098.4c2.1-0.1 2.9 0.8 2.7 2.3-0.3 2-2.1 2.1-3.6 2.3-1.4 0.2-2.5-0.7-2.2-2.3 0.3-1.9 2.1-2 3.1-2.3z"/>
			<path id="&lt;Path&gt;" class="s0" d="m681.7 1111.2c-0.6 1.5-1.4 2.4-3.1 1.9-1.6-0.4-3.3-0.6-3.1-2.8 0.2-1.6 1.5-1.8 2.9-1.6 1.5 0.2 3.1 0.4 3.3 2.5z"/>
			<path id="&lt;Path&gt;" class="s0" d="m1301.4 736.5c0.5 0 1 1.1 0.8 2.5-0.3 1.6-0.3 3.4-2.6 3.3-1.6 0-2.3-1.1-1.9-2.5 0.3-1.4 0.2-3.4 3.7-3.3z"/>
			<path id="&lt;Path&gt;" class="s0" d="m1316 559.1c-0.1 1.4-0.6 2.6-2.2 2.5-2.2-0.1-2.2-1.9-2.2-3.5-0.1-1.4 0.4-2.5 2-2.5 2.4 0.1 1.8 2.2 2.4 3.5z"/>
			<path id="&lt;Path&gt;" class="s0" d="m355.6 353.1c-1.3-0.2-2.3-0.8-1.9-2.2 0.4-1.6 0.9-3.5 3.1-3.6 1.2-0.1 2.1 1.1 1.9 2.2-0.3 1.7-0.8 3.5-3.1 3.6z"/>
			<path id="&lt;Path&gt;" class="s0" d="m418.8 953.1c0 1.4-0.5 2.5-1.8 2.5-2 0-3.1-1.6-3.5-3.3-0.3-1.1 0.3-2.2 1.7-2.2 2.2-0.1 2.9 1.5 3.6 3z"/>
			<path id="&lt;Path&gt;" class="s0" d="m1175.6 966.5c-1.5 0-2.6-0.5-2.5-1.8 0-1.9 1.5-3.2 3.2-3.6 1-0.3 2.2 0.3 2.2 1.8 0 2.1-1.5 2.9-2.9 3.6z"/>
			<path id="&lt;Path&gt;" class="s0" d="m433.2 969c1.7 0.2 3 1.4 3.4 3.1 0.3 1.3-0.8 2.3-1.9 2.3-1.9-0.1-3.2-1.3-3.6-3.2-0.2-1.3 0.5-2.1 2.1-2.2z"/>
			<path id="&lt;Path&gt;" class="s0" d="m1302.6 482.7c0 1.5-0.7 2.5-2.3 2.4-2.1-0.1-2.1-2-2.3-3.5-0.1-1.4 0.4-2.5 2.1-2.4 2.3 0.2 1.8 2.2 2.5 3.5z"/>
			<path id="&lt;Path&gt;" class="s0" d="m858.9 96.3c1.8 0 3.5 0.2 3.6 2.2 0.1 1.6-1.3 2-2.7 1.9-1.6 0-3.4 0-3.4-2.2 0-1.5 1.2-2.1 2.5-1.9z"/>
			<path id="&lt;Path&gt;" class="s0" d="m910.9 108.9c-1.8-0.2-3.4-0.4-3.3-2.6 0.2-1.5 1.3-2 2.7-1.7 1.5 0.3 3.3 0.4 3.1 2.6-0.1 1.8-1.4 1.8-2.5 1.7z"/>
			<path id="&lt;Path&gt;" class="s0" d="m960 117.9c1.5 0.6 3.5 0.5 3.4 2.7-0.1 1.6-1 2.3-2.5 1.9-1.5-0.4-3.4-0.4-3.4-2.6 0.1-1.5 1.2-2.1 2.5-2z"/>
			<path id="&lt;Path&gt;" class="s0" d="m785.1 95.4c-0.6 2.2-2.2 2.2-3.8 2.2-1.4-0.1-2.6-0.7-2.4-2.3 0.3-2.1 2.1-1.8 3.7-1.8 1.5-0.1 2.2 0.7 2.5 1.9z"/>
			<path id="&lt;Path&gt;" class="s0" d="m1034.2 1071.1c-0.5 2-2.1 2.5-3.9 2.6-1.3 0-2.2-0.7-1.9-2.1 0.4-2 2.1-2.6 3.8-2.7 1.3-0.1 1.9 0.9 2 2.2z"/>
			<path id="&lt;Path&gt;" class="s0" d="m582.3 141.4c1.6-0.1 2.6 0.4 2.7 1.7 0 2.2-1.8 2.7-3.5 3.1-1.2 0.3-2.1-0.2-2.3-1.6-0.2-2.5 2-2.4 3.1-3.2z"/>
			<path id="&lt;Path&gt;" class="s0" d="m517.4 181.6c-0.3 2-1.8 2.8-3.6 2.9-1.2 0.1-2.3-0.7-2.1-2 0.3-2 1.9-2.8 3.7-3 1.4-0.1 2 0.7 2 2.1z"/>
			<path id="&lt;Path&gt;" class="s0" d="m1139.3 219.3c1.5 0.7 3.1 1.4 3 3.5 0 1.4-0.9 2-2.2 1.7-1.7-0.4-3.2-1.3-3.2-3.4 0.1-1.2 1-1.8 2.4-1.8z"/>
			<path id="&lt;Path&gt;" class="s0" d="m287.3 573.9c-1.7 0.1-2.3-1.1-2.1-2.4 0.2-1.4-0.2-3.5 2.2-3.4 2 0 2.1 1.4 2.1 2.9-0.1 1.5-0.3 2.9-2.2 2.9z"/>
			<path id="&lt;Path&gt;" class="s0" d="m343.6 370.1c2.1 0 2.6 1 2.5 2.2-0.3 1.7-0.7 3.5-3 3.5-1.4 0-2.1-0.9-1.9-2.1 0.3-1.7 0.9-3.3 2.4-3.6z"/>
			<path id="&lt;Path&gt;" class="s0" d="m453.6 232.4c-1.8 0.1-2.6-0.4-2.6-1.8 0.1-1.9 1.3-2.8 2.9-3.3 1.3-0.3 2.4 0.4 2.5 1.6 0 2-1.4 3.1-2.8 3.5z"/>
			<path id="&lt;Path&gt;" class="s0" d="m1308 713.8c-0.2 1.6-0.3 3.3-2.4 3.4-1.6 0.1-2-1.2-1.9-2.6 0.1-1.5 0.1-3.4 2.3-3.4 1.5-0.1 2.1 1.1 2 2.6z"/>
			<path id="&lt;Path&gt;" class="s0" d="m937.5 1108.1c0.1 2.1-2 1.9-3.3 2.2-1.3 0.3-2.5-0.5-2.5-2.1 0.1-2.1 1.9-2.2 3.4-2.4 1.4-0.1 2.5 0.3 2.4 2.3z"/>
			<path id="&lt;Path&gt;" class="s0" d="m416.8 269.5c-1.6 0-2.2-0.8-2.1-2.1 0.1-1.9 1.3-3.2 3.1-3.5 1.4-0.2 2.1 0.8 2 2.1-0.2 1.8-1.4 3-3 3.5z"/>
			<path id="&lt;Path&gt;" class="s0" d="m1196.7 277.6c0.1 1.4-0.3 2.4-1.7 2.4-2.2 0-3.1-1.7-3.5-3.3-0.3-1 0.5-2.3 1.8-2.2 2 0 2.9 1.5 3.4 3.1z"/>
			<path id="&lt;Path&gt;" class="s0" d="m1255.2 363.1c-0.2 1.5-0.9 2.4-2.2 2.1-1.9-0.5-2.6-2.1-2.6-3.9-0.1-1.4 0.9-2 2.1-1.8 2.1 0.4 2.4 2.1 2.7 3.6z"/>
			<path id="&lt;Path&gt;" class="s0" d="m1292.8 761.3c1.7 0.1 2.6 0.9 2.4 2.4-0.2 1.5-0.5 3.3-2.5 3.5-1.6 0.2-2.3-0.8-2.1-2.3 0.1-1.6 0.5-3.1 2.2-3.6z"/>
			<path id="&lt;Path&gt;" class="s0" d="m858.4 1120.3c1.8-0.2 3 0.4 3.1 1.8 0.1 2.2-1.8 2.2-3.3 2.3-1.4 0.2-2.7-0.3-2.7-1.8-0.1-2.2 1.7-2.2 2.9-2.3z"/>
			<path id="&lt;Path&gt;" class="s0" d="m512.9 1035.2c1.5 0.6 3.2 1.1 3.3 3.3 0.1 1.3-1.1 2-2.2 1.8-1.6-0.4-3.4-1-3.4-3.2 0-1.4 0.9-1.9 2.3-1.9z"/>
			<path id="&lt;Path&gt;" class="s0" d="m386.3 913.1c-0.2 1.4-0.8 2.5-2.1 2.2-1.9-0.3-2.8-1.8-3-3.6-0.1-1.4 0.7-2.1 2-2 2.1 0.2 2.7 1.8 3.1 3.4z"/>
			<path id="&lt;Path&gt;" class="s0" d="m780.7 1127.1c-1.6 0.1-3-0.4-2.8-2.2 0.1-1.8 1.7-1.9 3.2-1.9 1.6 0.1 3 0.5 2.9 2.3-0.2 2-1.8 1.9-3.3 1.8z"/>
			<path id="&lt;Path&gt;" class="s0" d="m809.1 1127.1q-2.4 0-4.7-0.1c-1.1-1.4-1-2.8 0.6-3.4 1.3-0.6 2.8-0.7 4.1 0.3 1.3 1 1 2.1 0 3.2z"/>
			<path id="&lt;Path&gt;" class="s0" d="m1312.6 533.5c0.2 1.3-0.3 2.4-2 2.3-2.3-0.1-2.1-2-2.2-3.5-0.2-1.2 0.4-2.3 1.8-2.3 2.2-0.1 2.3 1.7 2.4 3.5z"/>
			<path id="&lt;Path&gt;" class="s0" d="m538.2 1051.9c-0.1 1.4-0.6 2.4-1.9 2.3-1.8 0-3.4-0.8-3.8-2.8-0.3-1.2 0.5-2.2 1.7-2.1 1.9 0 3.2 1 4 2.6z"/>
			<path id="&lt;Path&gt;" class="s0" d="m1054.7 159.5c1.5 0.6 3.2 1 3.4 3.1 0.1 1.4-0.9 2.1-2.1 1.9-1.8-0.2-3.5-0.9-3.6-3-0.1-1.2 0.8-1.9 2.3-2z"/>
			<path id="&lt;Path&gt;" class="s0" d="m1313.4 665.9c-2.2-0.2-1.8-1.8-1.8-3.2 0-1.7 0.6-2.8 2.5-2.6 1.8 0.2 1.5 1.7 1.5 2.9 0 1.5-0.2 3-2.2 2.9z"/>
			<path id="&lt;Path&gt;" class="s0" d="m1158.2 236.9c1.7 0.3 3 1.3 3.2 3.3 0.2 1.3-0.7 2.1-2 2-1.8-0.2-3.1-1.5-3.4-3.3-0.1-1.2 0.8-2 2.2-2z"/>
			<path id="&lt;Path&gt;" class="s0" d="m299.6 491.4c1.5 0.2 1.7 1.4 1.5 2.8-0.2 1.4-0.3 3.1-2.3 3.1-2 0-2.2-1.5-1.9-3 0.2-1.5 0.5-2.9 2.7-2.9z"/>
			<path id="&lt;Path&gt;" class="s0" d="m387.2 306.5c-0.6 1.5-1.3 3.2-3.4 3.2-1.4 0-1.9-1.1-1.6-2.2 0.3-1.7 1.1-3.4 3.2-3.4 1.4 0 1.7 1.1 1.8 2.4z"/>
			<path id="&lt;Path&gt;" class="s0" d="m704.2 106.3c-1.4-0.1-2.5-0.5-2.3-2.3 0.2-1.9 1.9-1.9 3.2-2 1.4-0.2 2.7 0.2 2.6 1.9-0.1 2.3-2.1 2-3.5 2.4z"/>
		</g>
		<g id="&lt;Group&gt;">
			<path id="&lt;Path&gt;" class="s3" d="m744.8 856c0.4 0.2 0.7 0.2 0.9 0.1q-0.6-0.1-1.2-0.3 0.1 0.1 0.3 0.2z"/>
			<path id="&lt;Path&gt;" class="s4" d="m777.3 858.2c1-1.5 2.6-0.9 3.9-0.9 12.2-0.1 24.3 0 36.4 0q-0.1 0.4-0.1 0.9-20.1 0-40.2 0z"/>
			<path id="&lt;Path&gt;" class="s5" d="m849.6 429.4c-4.2 0-9.2 0.4-13.5 0.7-9.7 0.8-19.4 2.7-29.2 2.3 5.7-8.1 12.9-14.8 19.2-22.4 3.2-3.9 6.8-7.5 10.2-11.3 1-1 2-1.9 2.7 0.2 3.2 10 8.3 20.2 10.6 30.5z"/>
			<path id="&lt;Path&gt;" class="s6" d="m859.7 427.8q0 0.8-0.1 1.6-4-0.2-8-0.4 1.5-0.4 3.3-0.7c1.7-0.3 3.3-0.4 4.8-0.5z"/>
			<g id="&lt;Group&gt;">
				<path id="&lt;Path&gt;" class="s7" d="m542.9 598.9q2.3 6.2 0 12.4 0-6.2 0-12.4z"/>
				<path id="&lt;Compound Path&gt;" fill-rule="evenodd" class="s8" d="m1016.6 493.6q4.8 0 9.6 0c-3.3 6.4-5.2 12.6 2.2 17.9 8.1 5.8 12.5 14.2 14.9 23.6 0.4 1.8 0.9 3.4 2.7 4.2q0.1 1.1 0.2 2.2-3.8 7.6-7.6 15.2c-1.7 0-2.4 1.2-3.2 2.4-1.7 2.3-3.7 4.3-6.5 5.3-15.6 8.4-36.1 17.1-60.9 22.5-10 2.2-19.4 3.6-28 4.4q-5.2-0.6-10.3-1.3c-3.9-4-7-8.4-9.4-13-6.1-11.9-6.2-22.9-6.3-30.5-0.3-13.8-1-30.9-2.6-53.9-0.3-2.9 0.2-5.8-1.1-8.6-0.5-0.6-1.1-1.7-1.3-3.3-0.2-1.1-0.1-2.1 0-2.8 0.3-1.6 0.9-3.8 2.2-6.1 1-1.7 2-3.1 3-4 0.7 0.8 1.8 2 3.1 3.3 0 0 5.3 5.2 11.9 9.4 17.7 11 46.9 13 46.9 13 13.5 0.3 27 0.1 40.5 0.1zm-14.8 36.4c4.9 0.1 7.8-2.3 8-6.7 0.3-5.3-2.8-8.7-7.7-8.8-5-0.2-8.1 2.5-8.2 7.2-0.1 4.7 3.1 8.1 7.9 8.3zm16.7 17.2c3.1-0.1 4.6-1.7 4.6-4.7-0.1-3.1-2-4-4.7-4.1-3.3-0.1-4.1 2-4.2 4.5-0.2 2.8 1.4 4.3 4.3 4.3zm-29.6 7.3c0.2-2.7-1.1-4.4-3.8-4.4-2.6-0.1-4.1 1.3-4.2 4-0.1 2.5 0.6 4.4 3.5 4.6 2.9 0.1 4.5-1.3 4.5-4.2z"/>
				<path id="&lt;Path&gt;" class="s9" d="m1046 539.3c-1.8-0.8-2.3-2.4-2.7-4.2-2.4-9.4-6.8-17.8-14.9-23.6-7.4-5.3-5.5-11.5-2.2-17.9q0.5-0.6 1-1.3c3.3 0.1 6.6 0.1 9.9 0.4 8.6 0.8 14.5 7.2 14.8 15.8 0.4 10.8-3.6 20.6-5.9 30.8z"/>
				<path id="&lt;Path&gt;" class="s6" d="m702.3 515.4c6.8-7.1 13.6-14.6 20.5-22.6 13.5-15.8 25.3-31.3 35.5-46 0.1 3.5-2.5 5.8-3.9 8.5-12.9 23.4-20.4 48.5-25.9 74.5-4.3 20-7.6 39.9-4.8 60.4 0.9 6.1 1.7 12.2 4.1 18 1.8-0.9 2.1-2.4 2.4-3.8 1.8-7.8 5-15.1 8.9-22 5.2-9.2 11-17.9 20.1-23.8 0.3 0.9 0.7 1.8 0.8 2.7 7.6 40.8 25.2 77.7 44 114.1 0.7 2 1.2 4 2 5.9 4.5 11.2 8.3 22.9 14.3 33.5q2.4 4.6 4.7 9.2c1.5 8.2 4.7 15.9 6.8 23.8 4.2 16.2 6.7 32.6 8.4 49.2 1.1 10.2 2.3 20.5 0.4 30.8-1.3 7.2-2 14.5-3 21.7-15 3.6-30.3 4.3-45.6 3.6-0.2-15.5-1.3-30.8-4.2-46-4.4-23.4-10.8-46.1-23.3-66.7-14.1-23.3-32.9-42.4-53.2-60.2-5.1-8.7-11.4-21-16.4-36.6-11.2-34.4-9.1-62.9-8.4-70.8 2.3-24.5 9.5-44.1 15.8-57.4z"/>
				<path id="&lt;Path&gt;" class="s10" d="m711.3 680.2c20.3 17.8 39.1 36.9 53.2 60.2 12.5 20.6 18.9 43.3 23.3 66.7 2.9 15.2 4 30.5 4.2 46-1.7 2.1-4 2.3-6.5 2.2-15.5-0.6-30.7-3.7-45.8-6.9-2.6-0.6-5.3-1.2-7.8-2-2.1-0.7-4.1-1.8-4.4-4.5-0.3-2.2-0.9-4.4-0.9-6.6-0.1-19-4.3-37.4-10.1-55.3-6.9-21.3-17.4-40.9-30.9-58.8-9.6-12.9-20.4-24.7-33-34.8-17.1-13.8-35.7-25.3-55.8-34.2-13.3-5.9-26.8-10.6-41.5-11.2-3.7-4.8-3.4-10-1.9-15.4 11.7 1 23.5 1.6 35.2 2.9 34.1 3.9 66.2 14 95.1 32.9 9.3 6.1 18.4 12.5 27.6 18.8z"/>
				<path id="&lt;Path&gt;" class="s11" d="m555.3 641c14.7 0.6 28.2 5.3 41.5 11.2 20.1 8.9 38.7 20.4 55.8 34.2 12.6 10.1 23.4 21.9 33 34.8 13.5 17.9 24 37.5 30.9 58.8 5.8 17.9 10 36.3 10.1 55.3 0 2.2 0.6 4.4 0.9 6.6-3.8 0.2-7.1-0.7-9.5-3.8 0-3.1-0.9-6-2-8.8-10.6-27.8-28.2-50.3-50.3-70-19.7-17.6-41.3-32.1-65.3-43-8-3.7-15.7-8.5-25-8.4-9.6-19.8-15.7-40.6-19.2-62.3-0.2-1.5-0.6-3.1-0.9-4.6z"/>
				<path id="&lt;Path&gt;" class="s8" d="m837.6 849.5c1-7.2 1.7-14.5 3-21.7 1.9-10.3 0.7-20.6-0.4-30.8-1.7-16.6-4.2-33-8.4-49.2-2.1-7.9-5.3-15.6-6.8-23.8q-0.1-4.4-0.1-8.9 0-4.1-0.1-8.2c0.8-6.5 2.5-15.2 6-25 2.9-8 6.8-15.6 11.9-22.7 10.5-14.9 24.1-25.6 41.8-30.6-2.5 5.6-7.9 8.5-11.4 13.3-10.1 14.1-12.8 29.7-11 46.6 1.5 14.8 7.8 28.1 11.7 42.2 6.2 22.5 7.2 45.4 5.1 68.6-1.2 12.9-4.3 25.3-8.5 37.5-0.1 0.3-0.3 1.6-1 3.2-0.4 1.1-0.9 1.9-1.4 2.6-3.9 1.5-8.4 3.1-13.6 4.3-6.3 1.6-12 2.3-16.8 2.6z"/>
				<path id="&lt;Path&gt;" class="s8" d="m711.3 680.2c-9.2-6.3-18.3-12.7-27.6-18.8-28.9-18.9-61-29-95.1-32.9-11.7-1.3-23.5-1.9-35.2-2.9q0.2-2 0.3-3.9c12.8-1.1 24.1-7 35.5-12.2 23.1-10.4 43.5-24.8 62.3-41.9 12.4-11.4 24.9-22.7 36.1-35.4q7.4-8.4 14.7-16.8c-11.3 23.5-14.6 44.3-15.8 57.4-2.8 33.3 5.5 59.1 10.3 73.8 4.7 14.2 10.2 25.6 14.5 33.6z"/>
				<path id="&lt;Path&gt;" class="s5" d="m575.4 707.9c9.3-0.1 17 4.7 25 8.4 31.7 14.4 52.5 31.3 65.3 43 21.5 19.6 41.8 38.6 50.6 69.8 1.1 3.9 1.8 7.2 2.2 9.5-3.2-0.8-7.8-1.9-13.3-3.7-28.8-9.3-47-24.8-63.9-39.4-26.1-22.7-47.9-48.7-62.7-80.1-1.2-2.5-2.1-5-3.2-7.5z"/>
				<path id="&lt;Path&gt;" class="s5" d="m804 675.4c-4.2-21.2-3.3-38.3-2-49.5 1.6-13 4.6-22.8 10.1-41 3.6-12.1 6.6-21.8 12.3-34.4 1.4-3.1 7.1-15.6 16.9-30.9 4.9-7.7 9.5-14 13.2-18.9-2 4.5-3 8.3-3.6 10.9-3.7 17.2 2.3 31.6 4.2 35.9 0.2 0.5 1.2 2.8 2.8 5.7 2.6 4.5 6.6 10.7 12.9 16.7 14.2 13.7 30.1 17.3 36.1 18.6 9.4 2 17.4 2 22.8 1.5q5.1 0.7 10.3 1.3c2.2 1.2 4.7 2.3 7.7 3.4 3.1 1.1 5.9 1.9 8.5 2.4 0.1 0.5 0.4 2.4 0.5 2.9q0.3 1.4 0.6 2.8c-14.4 5.8-29.3 10-43.9 15.2-9.7 3.4-19.6 6.2-28.9 10.6-17.7 5-31.3 15.7-41.8 30.6-10.1 14.3-15.6 30.4-17.9 47.7q-2.2 3.9-4.5 7.9c-6-10.6-9.8-22.3-14.3-33.5-0.8-1.9-1.3-3.9-2-5.9z"/>
				<path id="&lt;Path&gt;" class="s11" d="m929.7 590c-3.5 0.4-8.9 0.7-15.4 0-7.7-0.9-27-4.3-43.5-20.1-6.3-6-11.6-13.4-15.7-22.4-4.9-10.9-7.6-22.5-5.1-34.7 0.9-7.9 6.2-13.1 11.5-18.2 8.5 0.7 17-1.7 25.5-0.9 5.5 0.5 11 1.2 16.4-0.1 2.6-0.6 5.2-1.2 8-1 2.4 27.2 3 43.9 2.6 53.9-0.1 2.6-0.5 10.3 2 19.6 1 3.6 2.4 7.2 4.4 10.9 3 5.9 6.6 10.2 9.3 13z"/>
				<path id="&lt;Compound Path&gt;" fill-rule="evenodd" class="s5" d="m911.4 492.6c-2.8-0.2-5.4 0.4-8 1-5.4 1.3-10.9 0.6-16.4 0.1-8.5-0.8-17 1.6-25.5 0.9 1.2-6.9 7.1-10.7 10.7-16 0.3-0.4 0.7-0.6 1-1 2.6-3.3 4.8-8 9.7-7.6 6.5 0.6 13 2.1 18.2 7.1 2.7 2.6 4.5 6.8 9.2 6.9 1.3 2.8 0.8 5.7 1.1 8.6zm-15.4-7.2c0-3.6-1.7-5.7-5.3-6.1-1.7-0.2-3.2 0.4-3.2 2.5-0.1 2 4.1 6.9 5.9 6.9 2.2-0.1 2.5-1.6 2.6-3.3z"/>
				<path id="&lt;Path&gt;" class="s12" d="m908.8 478.8c-0.8-4.3-2.3-10.4-5.6-17.2-2-4.1-6.3-12.8-15.6-20.3-7.6-6.2-17-10.1-28-11.9q0.1-0.8 0.1-1.6 2.2-0.1 4.3-0.3c12.5 1.7 24 5.5 33.5 14.2 6.6 6 11.3 13.1 14.6 21.3 0.6 1.6 1.4 3.2 2.1 4.8-1 1-2 2.3-3 4-1.5 2.7-2.1 5.3-2.4 7z"/>
				<path id="&lt;Path&gt;" class="s13" d="m1001.8 530c-4.8-0.2-8-3.6-7.9-8.3 0.1-4.7 3.2-7.4 8.2-7.2 4.9 0.1 8 3.5 7.7 8.8-0.2 4.4-3.1 6.8-8 6.7z"/>
				<path id="&lt;Path&gt;" class="s7" d="m1018.5 547.2c-2.9 0-4.5-1.5-4.3-4.3 0.1-2.5 0.9-4.6 4.2-4.5 2.7 0.1 4.6 1 4.7 4.1 0 3-1.5 4.6-4.6 4.7z"/>
				<path id="&lt;Path&gt;" class="s14" d="m1017.5 575.8q0-0.9-0.2-2c-0.3-1.5-0.8-2.6-1.2-3.5q6.4-2.9 12.8-5.9-2.2 2.8-5.2 5.7c-2.1 2.2-4.2 4.1-6.2 5.7z"/>
				<path id="&lt;Path&gt;" class="s13" d="m988.9 554.5c0 2.9-1.6 4.3-4.5 4.2-2.9-0.2-3.6-2.1-3.5-4.6 0.1-2.7 1.6-4.1 4.2-4 2.7 0 4 1.7 3.8 4.4z"/>
				<path id="&lt;Path&gt;" class="s15" d="m956.2 597.1c0 0 5.8 0.9 5.8 0.9 0.1 0 5.6 0.9 5.6 0.9q-5.1 2-10.3 3.9-0.6-2.8-1.1-5.7z"/>
				<path id="&lt;Path&gt;" class="s7" d="m820.3 714.8q2.3-4 4.5-7.9 0.1 8.6 0.2 17.1-2.3-4.6-4.7-9.2z"/>
				<path id="&lt;Path&gt;" class="s11" d="m896 485.4c-0.1 1.7-0.4 3.2-2.6 3.3-1.8 0-6-4.9-5.9-6.9 0-2.1 1.5-2.7 3.2-2.5 3.6 0.4 5.3 2.5 5.3 6.1z"/>
				<path id="&lt;Path&gt;" class="s16" d="m850.3 429q0.7 0 1.3 0 4 0.2 8 0.4c20.1 3.3 34.9 13.7 43.6 32.2 0.1 0.3 0.8 1.7 1.6 3.7 3.2 7.7 4.7 14.2 5.5 18.7-4.7-0.1-6.5-4.3-9.2-6.9-5.2-5-11.7-6.5-18.2-7.1-4.9-0.4-7.1 4.3-9.7 7.6-0.3 0.4-0.7 0.6-1 1-3.6 5.3-9.5 9.1-10.7 16-1.4 1.3-3.4 3.3-5.6 5.8-5.5 6.3-8.7 11.8-10.8 15.4-12.9 22.1-12.6 20.6-15.4 26.3-20.9 43.7-25.7 78.6-25.7 78.6-1.7 12.9-3 31.8 0 54.7-11.2-20.1-19.2-37.7-24.6-50.9-8-19.4-16-39-20.2-65.9-3.8-23.8-2.1-36.6-1.3-41.4 2.4-14 6.9-23.5 11.9-34.1 12.9-27.5 29.3-43.5 34.7-48.5 1-1 1.8-1.7 2.4-2.2q21.4-2.5 43.4-3.4z"/>
				<path id="&lt;Path&gt;" class="s17" d="m949.4 595.3c-3.6-1.2-6.7-2.6-9.4-4 9.7-0.7 17.6-2.1 23.1-3.3 14.8-3.1 26.7-7.6 40.5-12.8 5.3-2 9.7-3.7 12.5-4.9 0.4 0.9 0.9 2 1.2 3.5q0.2 1.1 0.2 2c-13.8 13.8-30.9 20.6-49.9 23.1-4.9-0.3-11.2-1.2-18.2-3.6z"/>
				<path id="&lt;Path&gt;" class="s0" d="m1046.2 541.5c2.7 9.2 5.9 22.2 7.6 37.9 2.8 25.4 0.2 44.9-1.7 58.1-1.8 13-5.2 36.8-17.2 65.4-10.5 24.9-25 47.8-43.6 69-23 26.2-46.1 41.9-58.3 49.4-22.8 14-70.9 38.7-135.4 38.3-15.8-0.1-54.3-1.8-98.7-20.7-16.4-6.9-47.8-22.4-79-52.3-15.7-15-28.9-31.3-39.7-48.9-8.3-13.4-25.1-43.4-33-85.6-3-15.9-7.1-46-1.7-83.2 4.5-32 14.1-55.5 18.6-65.8 12-27.1 28.9-51.9 50.6-74.3q28.9-30.1 63.9-48.3c6.9-3.6 38-19.4 82.6-25.8 38.1-5.5 67.9-1.5 77.7 0 58.6 8.9 98.6 36.1 112 46 28.9 21.1 53 48.9 72.4 83.5 1.5 2.6 2.6 5.4 3.9 8.1q-0.5 0.7-1 1.3-4.8 0-9.6 0c-0.9-2-1.7-4.1-2.7-6.1-14.2-26-31.7-48.3-52.3-66.9-2.3-2-37.5-33.1-87.2-51-19.3-6.9-34.1-9.5-38.7-10.2-4.8-0.8-19.4-3-39.1-2.5-59.3 1.5-105.2 25.8-115.3 31.1-48.3 25.8-82.1 65-105.1 114.2-17.7 37.9-25.9 77.6-22.5 119.5q-0.1 1.9-0.3 3.9 1 7.7 1.9 15.4c0.3 1.5 0.7 3.1 0.9 4.6 3.5 21.7 9.6 42.5 19.2 62.3 1.1 2.5 2 5 3.2 7.5 20.7 43.9 56.1 74.6 62.7 80.1 7.6 6.2 27.8 22.1 57.9 35.4 49.3 21.7 92.3 21.9 102.6 21.8 15.2-0.2 60.5-2.2 110.3-28.5 19.5-10.3 73.6-42.6 106.6-109.3 16.5-33.5 25-71.7 24.5-115.1-0.2-14.5-1.6-28.9-4.6-43.1q3.8-7.6 7.6-15.2z"/>
				<path id="&lt;Path&gt;" class="s15" d="m837.5 361.4q0.2 18.1 0.4 36.2c0.9-1.9 2.4-4.6 4.5-7.7 0.8-1.1 0.7-1 3.5-4.8 2.2-2.8 4.3-5.6 6.6-8.2 2.3-2.6 5.1-4 8.5-2.5 3.1 1.3 3.4 4.2 3.4 7.2-0.1 15.3 0.4 30.6-0.4 45.9q-2.1 0.1-4.3 0.3c-3.8 0.4-7.3 1-10.6 1.6-2.2-10.2-6.9-20.5-10.1-30.5-0.7-2.1-1.7-1.2-2.7-0.2-3.4 3.8-7 7.4-10.2 11.3-6.3 7.6-13.5 14.3-19.2 22.4-0.4 0.4-1.3 1.2-2.4 2.2-26.6 24.8-46.9 64.2-46.6 107.2 0.1 3.5 0.3 9.4 1.3 16.8-5.4 4.4-13.5 12.1-20.1 23.8-6.8 11.9-9.3 23-10.3 29.9-1.7-5.2-3.8-12.8-5.1-22.1-3-21.4 0.1-37.3 4.8-60.4 6.3-31.2 15.1-52.4 18-59.1 4.3-9.8 8.4-17.9 11.8-23.9q0.4-0.5 0.8-1 0.6-0.9 1.2-1.7c5.3-6.8 54.9-70.1 65.6-81.9 2.5-2.7 6.2-6.4 8.9-5.4 1.6 0.6 2.4 2.8 2.7 4.6z"/>
			</g>
		</g>
	</g>
</svg>